<?xml version="1.0" standalone="no"?>
<!DOCTYPE svg PUBLIC "-//W3C//DTD SVG 20010904//EN"
 "http://www.w3.org/TR/2001/REC-SVG-20010904/DTD/svg10.dtd">
<svg version="1.0" xmlns="http://www.w3.org/2000/svg"
 width="40.000000pt" height="40.000000pt" viewBox="0 0 1274.000000 1280.000000"
 preserveAspectRatio="xMidYMid meet">
<g transform="translate(0.000000,1280.000000) scale(0.100000,-0.100000)"
fill="#000000" stroke="none">
<path d="M6265 12784 c-106 -37 -131 -49 -167 -82 -64 -58 -68 -72 -68 -250 0
-116 -3 -162 -12 -169 -7 -6 -61 -14 -120 -17 -59 -4 -174 -16 -255 -26 -95
-12 -151 -16 -157 -10 -6 6 -25 78 -42 160 -20 94 -40 161 -53 179 -12 16 -47
42 -79 58 -52 26 -67 28 -167 28 -128 0 -183 -15 -274 -76 -64 -43 -106 -98
-116 -152 -5 -24 4 -84 26 -187 19 -89 28 -154 23 -160 -5 -4 -65 -25 -134
-45 -69 -21 -181 -57 -249 -81 -69 -25 -128 -41 -132 -37 -4 5 -33 67 -65 138
-72 164 -75 169 -137 200 -86 42 -228 30 -346 -29 -66 -34 -155 -118 -180
-169 -36 -74 -29 -122 39 -274 33 -75 60 -141 60 -147 0 -7 -60 -45 -132 -85
-73 -41 -175 -100 -227 -132 -51 -33 -98 -59 -105 -59 -6 0 -54 59 -106 132
-75 105 -102 135 -135 149 -187 86 -515 -136 -515 -349 0 -64 0 -64 106 -209
46 -63 84 -123 84 -132 0 -9 -21 -33 -48 -54 -26 -22 -112 -98 -190 -170 -79
-73 -149 -133 -156 -135 -6 -1 -65 45 -130 103 -65 59 -129 110 -143 116 -171
65 -444 -163 -460 -384 -6 -85 9 -110 147 -236 63 -58 116 -112 118 -119 2 -7
-34 -63 -80 -125 -46 -62 -115 -156 -152 -209 -37 -54 -71 -100 -75 -102 -4
-3 -70 31 -147 76 -92 53 -153 82 -180 85 -68 8 -137 -21 -208 -88 -103 -96
-162 -232 -154 -359 5 -102 29 -130 178 -215 68 -38 133 -78 146 -88 l23 -17
-46 -98 c-25 -53 -72 -160 -105 -237 -32 -77 -63 -144 -68 -148 -4 -5 -81 14
-170 43 -130 41 -170 50 -201 45 -212 -36 -349 -449 -200 -605 32 -33 55 -44
186 -85 83 -26 156 -53 163 -60 11 -10 7 -40 -22 -171 -19 -87 -43 -202 -51
-254 -9 -52 -20 -98 -23 -102 -4 -4 -48 -3 -97 2 -277 30 -298 28 -364 -38
-62 -62 -121 -212 -121 -307 0 -65 46 -200 82 -241 54 -61 70 -65 343 -90 39
-4 75 -11 82 -16 8 -7 12 -84 12 -273 l0 -265 -22 -4 c-12 -3 -47 -7 -79 -10
-277 -28 -282 -29 -336 -90 -43 -50 -85 -183 -79 -255 14 -181 110 -334 217
-348 24 -3 99 0 169 7 69 7 144 13 166 14 l40 1 31 -155 c18 -85 43 -201 57
-257 19 -81 21 -105 12 -113 -7 -6 -84 -33 -171 -61 -140 -45 -163 -56 -195
-89 -150 -157 -10 -575 204 -605 34 -4 75 5 212 50 132 42 172 52 181 42 6 -6
35 -68 64 -137 29 -69 75 -169 101 -222 27 -54 49 -104 49 -111 0 -7 -70 -53
-156 -102 -186 -107 -206 -129 -212 -235 -7 -126 44 -248 147 -351 50 -50 79
-70 120 -84 84 -28 117 -18 284 79 82 47 154 86 162 86 7 0 40 -37 71 -83 32
-45 100 -137 151 -204 51 -68 93 -128 93 -135 0 -7 -63 -70 -140 -140 -154
-141 -168 -165 -156 -262 20 -177 225 -376 385 -376 31 0 68 7 84 14 15 8 85
67 156 130 71 64 134 116 141 116 7 0 52 -38 101 -84 49 -46 134 -121 188
-167 55 -46 100 -91 100 -100 1 -8 -44 -77 -98 -152 -123 -168 -121 -164 -121
-229 0 -210 317 -429 510 -352 34 14 58 40 151 168 61 83 118 153 126 154 8 2
62 -25 121 -61 59 -35 158 -92 220 -127 66 -37 112 -68 112 -77 0 -8 -32 -86
-70 -173 -79 -177 -86 -221 -49 -297 24 -51 106 -128 175 -165 115 -63 263
-76 351 -33 28 14 58 36 66 48 7 12 45 92 82 177 38 85 72 159 76 164 5 6 84
-15 196 -52 104 -34 214 -69 246 -78 32 -9 61 -23 64 -31 3 -8 -11 -94 -31
-190 -26 -120 -36 -186 -31 -210 10 -55 55 -113 118 -154 92 -59 145 -74 272
-74 100 0 115 2 167 28 32 16 67 41 78 58 14 19 35 93 61 211 21 100 43 186
48 191 6 6 37 6 83 -1 40 -6 127 -16 193 -23 66 -6 149 -14 185 -18 l65 -6 6
-210 c3 -116 6 -211 7 -212 24 -34 84 -89 111 -103 56 -28 174 -60 221 -60 48
0 166 32 220 60 44 23 95 76 109 113 7 16 11 109 11 218 0 143 3 191 13 194 6
2 68 9 137 15 69 5 181 17 249 26 71 9 127 12 132 7 5 -5 27 -91 48 -191 26
-118 47 -192 61 -211 11 -17 46 -42 78 -58 52 -26 67 -28 167 -28 128 0 183
15 274 76 64 43 106 98 116 152 5 24 -5 90 -31 210 -20 96 -34 182 -31 190 3
8 32 23 64 32 32 9 140 43 241 76 100 33 187 59 193 57 6 -2 41 -73 79 -158
89 -201 91 -204 152 -234 87 -43 228 -32 347 28 66 34 155 118 180 169 37 76
30 120 -50 298 -39 88 -69 167 -67 176 2 9 48 41 103 71 55 30 152 85 216 123
64 38 122 69 130 69 8 0 64 -68 124 -151 122 -169 146 -188 243 -189 196 -1
422 196 422 368 0 65 2 61 -121 230 -55 75 -98 144 -97 153 2 9 39 46 83 84
44 37 128 112 187 167 60 55 114 98 122 96 8 -2 71 -54 140 -116 69 -62 138
-120 153 -128 87 -44 233 7 341 120 110 114 160 270 115 356 -10 19 -76 88
-148 153 -71 65 -131 124 -133 132 -2 8 32 60 76 117 43 57 111 149 151 206
39 56 78 102 86 102 8 0 80 -39 162 -86 100 -59 161 -88 189 -91 68 -8 137 21
208 88 103 96 162 232 154 359 -6 106 -26 128 -212 235 -86 49 -156 95 -156
102 0 7 22 57 48 111 27 53 73 153 102 222 29 69 58 131 64 137 9 10 48 0 181
-42 137 -45 178 -54 212 -50 214 30 354 447 204 605 -32 33 -55 44 -198 90
-89 28 -166 57 -172 64 -7 8 -2 41 14 106 14 52 39 165 56 250 17 85 34 158
38 163 4 4 50 3 102 -3 282 -30 302 -28 368 38 62 62 121 212 121 307 0 65
-46 200 -82 241 -54 61 -59 62 -336 90 -32 3 -67 7 -79 10 l-23 4 0 264 c0
199 3 266 13 273 6 6 44 13 82 17 273 25 289 29 343 90 43 50 85 183 79 255
-14 181 -110 334 -217 348 -24 3 -102 0 -174 -7 -72 -7 -144 -14 -161 -14
l-30 -1 -18 95 c-9 52 -33 169 -53 259 -29 135 -33 166 -22 176 7 7 81 34 163
60 131 41 154 52 186 85 149 156 12 569 -200 605 -31 5 -71 -4 -201 -45 -108
-35 -165 -49 -172 -42 -6 6 -38 77 -73 159 -34 81 -81 187 -103 234 -22 48
-37 91 -33 96 3 5 68 45 145 89 167 95 188 120 194 224 7 126 -44 248 -147
351 -50 50 -79 70 -120 84 -83 27 -118 18 -275 -73 -77 -45 -143 -79 -147 -76
-4 2 -34 42 -65 87 -32 45 -100 139 -152 209 -51 70 -92 133 -90 140 2 7 58
64 125 126 135 125 151 152 139 246 -20 175 -225 376 -382 376 -29 0 -64 -4
-77 -9 -13 -5 -78 -57 -143 -115 -66 -58 -123 -106 -129 -106 -5 0 -68 54
-140 121 -71 66 -158 143 -192 172 -35 29 -63 59 -63 68 0 9 38 69 84 132 106
145 106 145 106 209 0 213 -328 435 -515 349 -32 -14 -60 -45 -135 -149 -52
-72 -101 -132 -107 -132 -7 0 -38 16 -68 36 -83 53 -272 162 -337 195 -32 16
-58 35 -58 43 0 7 27 74 60 149 68 152 75 200 39 274 -24 51 -106 128 -175
165 -115 63 -263 76 -351 33 -62 -31 -65 -36 -137 -200 -32 -71 -61 -134 -65
-138 -4 -4 -58 10 -120 32 -61 22 -174 59 -249 82 -75 22 -141 45 -146 50 -5
5 4 70 23 159 22 103 31 163 26 187 -10 55 -55 113 -118 154 -92 59 -145 74
-272 74 -100 0 -115 -2 -167 -28 -32 -16 -67 -42 -79 -58 -13 -18 -33 -85 -53
-179 -17 -82 -36 -154 -42 -160 -6 -6 -62 -2 -157 10 -81 10 -196 22 -255 26
-59 3 -113 11 -119 17 -10 7 -13 53 -13 169 0 175 -4 190 -62 244 -88 84 -274
126 -383 88z m-647 -2983 c1 -1027 -1 -1518 -8 -1525 -12 -12 -2150 2119
-2150 2143 0 17 5 21 175 135 468 312 980 539 1527 676 181 45 402 89 433 87
20 -2 20 -10 23 -1516z m1663 1494 c505 -93 1026 -280 1473 -529 256 -142 525
-319 526 -346 0 -22 -2135 -2154 -2149 -2146 -12 8 -17 3027 -4 3039 9 9 3 10
154 -18z m-839 -147 c56 -16 122 -79 155 -146 l28 -57 3 -864 c3 -956 4 -927
-61 -1013 -48 -63 -106 -100 -166 -106 -109 -10 -205 48 -258 156 l-28 57 0
885 0 885 28 57 c31 63 99 129 149 145 45 15 103 15 150 1z m-3112 -1335 c47
-22 143 -113 657 -627 552 -551 604 -606 632 -666 51 -107 40 -222 -27 -294
-68 -72 -182 -94 -289 -55 -55 20 -91 55 -671 633 -688 686 -672 667 -672 800
0 60 5 79 30 123 67 117 199 150 340 86z m6328 4 c79 -36 123 -112 124 -215 1
-127 11 -115 -674 -798 -580 -578 -616 -613 -671 -633 -101 -37 -196 -24 -266
36 -87 74 -107 194 -50 313 28 60 80 115 622 656 326 326 611 604 635 618 90
56 192 64 280 23z m-6199 -1541 c638 -638 1071 -1078 1067 -1085 -9 -13 -3013
-16 -3034 -2 -11 7 -9 30 8 127 113 623 344 1215 683 1754 73 116 188 280 196
280 3 0 489 -483 1080 -1074z m6945 1021 c428 -613 692 -1235 830 -1956 19
-100 23 -138 15 -148 -10 -11 -272 -13 -1520 -13 -1100 0 -1510 3 -1515 11 -8
14 2134 2159 2150 2153 6 -3 24 -24 40 -47z m-3462 -2294 l238 -238 0 -335 0
-335 -238 -237 -237 -238 -335 0 -335 0 -237 238 -238 237 0 335 0 335 237
237 238 238 335 0 335 0 237 -237z m-3279 -333 c192 -72 240 -283 95 -416 -91
-84 -29 -79 -1023 -79 l-880 0 -47 22 c-233 109 -222 387 20 475 43 16 122 17
914 18 844 0 869 -1 921 -20z m7279 -8 c215 -107 209 -363 -10 -465 l-47 -22
-880 0 c-994 0 -932 -5 -1023 79 -146 134 -94 350 100 417 50 18 101 18 933
16 l880 -2 47 -23z m-6412 -995 c0 -6 -481 -494 -1070 -1082 -924 -924 -1072
-1068 -1087 -1059 -10 6 -57 68 -104 138 -337 497 -587 1068 -718 1641 -42
186 -73 354 -66 365 4 7 551 10 1526 10 1210 0 1519 -3 1519 -13z m6724 4 c9
-14 -41 -267 -89 -456 -130 -513 -343 -1003 -628 -1450 -95 -149 -166 -245
-180 -245 -16 0 -2147 2132 -2147 2147 0 10 309 13 1519 13 876 0 1522 -4
1525 -9z m-6720 -989 c34 -20 61 -45 81 -77 27 -43 30 -57 30 -129 0 -142 24
-113 -662 -797 -484 -482 -618 -611 -658 -630 -104 -49 -229 -32 -297 39 -44
46 -56 69 -68 131 -11 57 7 141 42 200 29 50 1171 1193 1235 1238 100 69 203
78 297 25z m3925 1 c48 -22 142 -111 662 -632 665 -665 650 -647 657 -774 5
-88 -15 -142 -72 -195 -71 -65 -167 -80 -273 -41 -55 20 -92 55 -670 632 -441
440 -619 624 -639 661 -21 39 -29 68 -32 126 -3 68 -1 80 25 130 22 42 41 62
82 87 29 18 65 34 80 36 48 9 124 -4 180 -30z m-2839 -1608 c0 -1379 -1 -1516
-16 -1522 -42 -16 -546 99 -777 178 -344 117 -619 239 -897 397 -136 77 -449
281 -470 307 -14 17 65 98 1059 1086 590 588 1080 1069 1087 1069 12 0 14
-235 14 -1515z m2594 452 c665 -661 1066 -1066 1066 -1078 0 -41 -423 -306
-725 -454 -227 -111 -429 -193 -662 -269 -275 -89 -714 -189 -757 -173 -15 6
-16 134 -16 1522 0 1319 2 1516 14 1513 8 -2 494 -479 1080 -1061z m-1778 368
c67 -19 127 -73 161 -143 l28 -57 3 -869 c3 -962 4 -932 -61 -1018 -124 -163
-341 -133 -431 61 -21 46 -21 51 -24 915 -3 955 -4 929 58 1014 47 65 121 107
196 111 11 1 43 -6 70 -14z"/>
</g>
</svg>
